<svg width="295" height="286" viewBox="0 0 295 286" fill="none" xmlns="http://www.w3.org/2000/svg">
<path fill-rule="evenodd" clip-rule="evenodd" d="M0 30.2026C2.76565e-05 101.703 18.9995 186.703 136.862 276.06L150.192 285.703L163 276.06C184.007 255.015 206.002 234.203 241.54 190.203C229.146 180.673 221.375 176.298 206.002 170.343C192.321 188.793 167.77 217.089 150.191 229.59C69.2585 164.347 41.8209 70.7082 47.8209 13.6146L0 30.2026Z" fill="#4890BF"/>
<path d="M241.54 93.7462C220.5 61.2462 216.5 39.2462 216.5 6.20259C177.5 -1.7538 126 -1.2538 84.4995 3.20259C76.7911 44.7186 94.3207 115.29 150.191 177.203C163 168.203 169 159.203 177.5 147.703C147.5 117.703 132.107 64.984 130.5 41C139.78 41.0461 170.638 42.7428 173 44C178.57 78.3042 202.5 130.5 257.5 163.203C279 128.703 292.5 68.7026 294.5 30.2026L246.5 13.6146C247.795 36.144 246.5 73.2462 241.54 93.7462Z" fill="#4890BF"/>
</svg>
